<svg width="56" height="56" viewBox="0 0 56 56" fill="none" xmlns="http://www.w3.org/2000/svg">
<path d="M38.57 25.8067L36.0967 23.3334L24.71 34.72L19.7633 29.7734L17.29 32.2467L24.71 39.6667L38.57 25.8067ZM44.3333 7.00004H42V2.33337H37.3333V7.00004H18.6667V2.33337H14V7.00004H11.6667C9.07667 7.00004 7.02333 9.10004 7.02333 11.6667L7 44.3334C7 46.9 9.07667 49 11.6667 49H44.3333C46.9 49 49 46.9 49 44.3334V11.6667C49 9.10004 46.9 7.00004 44.3333 7.00004ZM44.3333 44.3334H11.6667V18.6667H44.3333V44.3334Z" fill="#AC395D"/>
</svg>
